<svg version="1.1" id="Layer_1" xmlns="http://www.w3.org/2000/svg" xmlns:xlink="http://www.w3.org/1999/xlink" x="0px" y="0px"
	 width="318px" height="395px" viewBox="0 0 318 395" enable-background="new 0 0 318 395" xml:space="preserve">
	<linearGradient id="gradient" gradientUnits="userSpaceOnUse" x1="-256.508" y1="254.122" x2="115.621" y2="354.122" gradientTransform="matrix(1 0 0 -1 156 491)">
  		<stop offset="0" stop-color="black"></stop>
  		<stop offset="1" stop-color="white"></stop>
	</linearGradient>
	<path fill="white" stroke-miterlimit="10" d="M70.652,225.549v58.943l88.353,37.504l88.873-37.725v-69.283l-147.539-57v-27.452
		l58.666-24.901l58.666,24.901v52.452h89.666V71.543L159.005,8.58L10.664,71.546v251.909l148.337,62.965l148.336-62.965v-97.963
		h-29.686v78.391l-118.646,50.363L40.371,303.889V91.083l118.63-50.354l118.721,50.395v65.703h-29.55v-46.167l-89.171-37.852
		l-88.984,37.771v69.411l147.988,56v28.504l-59,25.043l-58.667-25.043v-38.943H70.652z"/>
</svg>