<svg version="1.0" id="Layer_2" xmlns="http://www.w3.org/2000/svg" xmlns:xlink="http://www.w3.org/1999/xlink" x="0px" y="0px" viewBox="0 0 318 395" xml:space="preserve" width="40" height="40">
<style type="text/css">
	.path1{fill:#FFFFFF;}
	.path2{
		fill: none;
        stroke: #1C1D25;
        stroke-width: 10;
	}
</style>
<path class="path1" d="M106.625,214.125L77.75,214l0.125,60.25l81.75,37.375L239.75,274.5L240,214l-133.25-50.312l-0.062-18.125  l52.312-26.5l52.563,26.312l-0.313,37.688L304.5,183l1.063-112.187L159.188,9L13.625,71v253.25l146.25,61.375l143.375-61.25  l1-110.25h-32.5l-0.875,85.25l-111.125,48.75l-113.625-48.75L46,96.25l113-49.375l113.813,49.438l-0.563,60.5l-31.562,0.125L241,121  l-81.812-37.562l-81.313,37.625l-0.062,60.25l132.52,50.354v22l-51,26.333l-52.458-25.875L106.625,214.125z"/>
<path class="path2" d="M108.8,214.125L77.75,214l0.125,60.25l81.75,37.375L239.75,274.5L240,214l-133.25-50.312l-0.062-18.125  l52.312-26.5l52.563,26.312l-0.313,37.688L304.5,183l1.063-112.187L159.188,9L13.625,71v253.25l146.25,61.375l143.375-61.25  l1-110.25h-32.5l-0.875,85.25l-111.125,48.75l-113.625-48.75L46,96.25l113-49.375l113.813,49.438l-0.563,60.5l-31.562,0.125L241,121  l-81.812-37.562l-81.313,37.625l-0.062,60.25l132.52,50.354v22l-51,26.333l-52.458-25.875L106.625,214.125z"/>
</svg>