<svg version="1" id="Layer_2" xmlns="http://www.w3.org/2000/svg" viewBox="0 0 318 395" width="40" height="40"><style>.path1{fill:#1d71b8}.path2{fill:none;stroke:#1c1d25;stroke-width:10}</style><path class="path1" d="M106.625 214.125L77.75 214l.125 60.25 81.75 37.375L239.75 274.5 240 214l-133.25-50.312-.062-18.125 52.312-26.5 52.563 26.312-.313 37.688L304.5 183l1.063-112.187L159.188 9 13.625 71v253.25l146.25 61.375 143.375-61.25 1-110.25h-32.5l-.875 85.25-111.125 48.75-113.625-48.75L46 96.25l113-49.375 113.813 49.438-.563 60.5-31.562.125L241 121l-81.812-37.562-81.313 37.625-.062 60.25 132.52 50.354v22l-51 26.333-52.458-25.875-.25-40z"/><path class="path2" d="M108.8 214.125L77.75 214l.125 60.25 81.75 37.375L239.75 274.5 240 214l-133.25-50.312-.062-18.125 52.312-26.5 52.563 26.312-.313 37.688L304.5 183l1.063-112.187L159.188 9 13.625 71v253.25l146.25 61.375 143.375-61.25 1-110.25h-32.5l-.875 85.25-111.125 48.75-113.625-48.75L46 96.25l113-49.375 113.813 49.438-.563 60.5-31.562.125L241 121l-81.812-37.562-81.313 37.625-.062 60.25 132.52 50.354v22l-51 26.333-52.458-25.875-.25-40z"/></svg>